<mxfile host="app.diagrams.net" modified="2023-07-07T09:35:19.253Z" agent="Mozilla/5.0 (Macintosh; Intel Mac OS X 10_15_7) AppleWebKit/537.36 (KHTML, like Gecko) Chrome/114.0.0.0 Safari/537.36 Edg/114.0.1823.58" etag="DCibe2nXtSk5nn-cc-4a" version="21.6.1" type="github">
  <diagram name="Page-1" id="pGtsfWZXuItlL5KaDyYR">
    <mxGraphModel dx="752" dy="690" grid="1" gridSize="10" guides="1" tooltips="1" connect="1" arrows="1" fold="1" page="1" pageScale="1" pageWidth="827" pageHeight="1169" math="0" shadow="0">
      <root>
        <mxCell id="0" />
        <mxCell id="1" parent="0" />
        <mxCell id="CoYGyPSKInfnlw_VdY7l-1" value="" style="whiteSpace=wrap;html=1;aspect=fixed;" vertex="1" parent="1">
          <mxGeometry x="50" y="110" width="80" height="80" as="geometry" />
        </mxCell>
        <mxCell id="CoYGyPSKInfnlw_VdY7l-2" value="" style="ellipse;whiteSpace=wrap;html=1;aspect=fixed;" vertex="1" parent="1">
          <mxGeometry x="300" y="120" width="80" height="80" as="geometry" />
        </mxCell>
        <mxCell id="CoYGyPSKInfnlw_VdY7l-3" value="" style="shape=parallelogram;perimeter=parallelogramPerimeter;whiteSpace=wrap;html=1;fixedSize=1;" vertex="1" parent="1">
          <mxGeometry x="570" y="200" width="120" height="60" as="geometry" />
        </mxCell>
      </root>
    </mxGraphModel>
  </diagram>
</mxfile>
